<?xml version="1.0" encoding="UTF-8" standalone="no"?>
<!-- Created with Inkscape (http://www.inkscape.org/) -->

<svg
   width="210mm"
   height="297mm"
   viewBox="0 0 210 297"
   version="1.1"
   id="svg1"
   xml:space="preserve"
   inkscape:version="1.4.3 (0d15f75, 2025-12-25)"
   sodipodi:docname="leaf.svg"
   xmlns:inkscape="http://www.inkscape.org/namespaces/inkscape"
   xmlns:sodipodi="http://sodipodi.sourceforge.net/DTD/sodipodi-0.dtd"
   xmlns="http://www.w3.org/2000/svg"
   xmlns:svg="http://www.w3.org/2000/svg"><sodipodi:namedview
     id="namedview1"
     pagecolor="#ffffff"
     bordercolor="#000000"
     borderopacity="0.25"
     inkscape:showpageshadow="2"
     inkscape:pageopacity="0.0"
     inkscape:pagecheckerboard="0"
     inkscape:deskcolor="#d1d1d1"
     inkscape:document-units="mm"
     inkscape:zoom="0.43028199"
     inkscape:cx="277.72485"
     inkscape:cy="517.10275"
     inkscape:window-width="1366"
     inkscape:window-height="697"
     inkscape:window-x="-8"
     inkscape:window-y="-8"
     inkscape:window-maximized="1"
     inkscape:current-layer="layer1" /><defs
     id="defs1" /><g
     inkscape:label="Layer 1"
     inkscape:groupmode="layer"
     id="layer1"><circle
       id="path1"
       style="fill:#d7d7f4;stroke:#000000;stroke-width:0.264583"
       cx="113.75776"
       cy="120.52174"
       r="0.12285838" /><circle
       id="path2"
       style="fill:#d7d7f4;stroke:#000000;stroke-width:0.264583"
       cx="118.67701"
       cy="121.13663"
       r="0.12285838" /><path
       style="fill:#eebf00;fill-opacity:0.97584498;stroke-width:0.264583"
       d="m 112.60584,112.31494 c 2.42156,7.01224 1.56627,6.38942 8.04389,4.13064 l 0.4348,-6.95687 c 2.22418,-3.36326 4.75019,-6.32408 8.6961,-7.39169 4.34805,-0.84015 8.9135,-1.24038 13.26155,0.21741 l 4.78285,2.60883 c -6.00756,0.36957 -9.73274,3.02153 -13.47895,5.65246 l -2.60883,6.08726 c 2.11818,-0.68125 3.65872,-1.1799 5.21766,-3.47843 4.38194,-6.1878 9.82401,-7.04584 14.78337,-6.30467 4.49885,1.78655 5.39412,4.1737 6.52207,6.52207 -8.27511,0.0587 -13.12674,3.54078 -17.3922,7.60908 l 0.86961,1.73922 c 5.00839,-5.84142 11.16002,-8.76847 18.47921,-6.52207 2.57825,2.87776 5.74949,5.45901 5.00025,10.00051 -5.00025,-2.28718 -10.00051,-1.9136 -15.00076,0.4348 l 3.69584,1.08702 c 5.289,-1.64328 10.64019,-1.78845 13.91375,5.43505 1.60033,3.55091 2.33816,5.7974 1.95662,8.26129 -5.72185,0.57974 -8.68007,1.15948 -6.30467,1.73922 -9.19683,-2.3093 -8.91476,-4.38663 -11.08752,-6.73947 l -1.73922,0.86961 c 2.43121,4.64408 8.02159,6.26937 12.17454,8.04389 -2.83011,0.96057 -5.99865,3.37379 -12.60934,2.17402 -9.81752,-9.27922 -6.28476,-10.0243 -7.82649,-14.13115 l -2.60883,0.86961 c -1.18774,4.1417 3.67642,9.79637 9.34831,15.65297 -5.20461,1.05437 -10.12704,1.40332 -13.04415,-3.26104 -5.41076,-7.05343 -2.94643,-10.16931 -3.04363,-14.56596 l -0.65221,-0.4348 c -3.18584,4.51554 -0.47228,11.25745 1.73922,17.39219 -3.18867,-0.57936 -6.29738,-1.47852 -8.9135,-4.34805 -2.52678,-4.03618 -3.58925,-8.73796 0.2174,-15.65297 l -1.30441,-1.08701 c -2.76781,4.76555 -2.66585,10.10505 -2.60883,15.43557 -3.66035,-4.19645 -7.00119,-2.75307 -6.73947,-16.08778 0.12368,-4.33007 2.3456,-6.96839 6.08726,-7.39168 -12.92072,-1.0637 -7.71073,-2.60942 -8.26129,-7.60908 z"
       id="path3"
       sodipodi:nodetypes="cccccccccccccccccccccccccccccccccccccc" /><ellipse
       id="path1-5"
       style="fill:#d7d7f4;stroke:#000000;stroke-width:0.196878"
       cx="-141.93846"
       cy="-33.251728"
       rx="0.092044689"
       ry="0.090798788"
       transform="rotate(-143.06947)" /><ellipse
       id="path2-5"
       style="fill:#d7d7f4;stroke:#000000;stroke-width:0.196878"
       cx="-138.25299"
       cy="-32.797306"
       rx="0.092044689"
       ry="0.090798788"
       transform="rotate(-143.06947)" /><path
       style="fill:#f8d240;fill-opacity:0.67647058;stroke-width:0.196878"
       d="m 98.610835,103.40869 c 1.663615,-5.232699 1.899265,-4.479746 -2.983074,-6.061223 l -3.349639,3.914203 c -2.825493,0.98571 -5.653039,1.59779 -8.49024,0.45225 -2.977029,-1.46093 -5.888904,-3.279625 -7.845517,-6.098123 l -1.705876,-3.694223 c 3.761908,2.48597 7.17046,2.596155 10.582268,2.728232 l 4.265463,-2.421821 c -1.571047,-0.551034 -2.715073,-0.949921 -4.669367,-0.293769 -5.371986,1.683051 -9.012142,-0.25979 -11.653075,-2.930109 -1.900935,-3.080603 -1.377063,-4.89387 -1.00976,-6.78897 4.981853,3.690366 9.433632,3.817208 13.794682,3.333865 l 0.251522,-1.418937 c -5.593339,1.196423 -10.577196,0.156487 -13.962969,-4.465356 -0.266172,-2.860701 -1.019136,-5.813165 1.446248,-8.158891 1.978909,3.602069 5.139345,5.632233 9.176711,6.495726 L 80.727551,75.69568 c -3.897177,-1.410038 -7.166357,-3.733117 -5.919178,-9.474154 0.618409,-2.818165 1.174106,-4.477466 2.496711,-5.761312 3.68413,2.233196 5.713183,3.222345 4.548039,1.810561 4.482327,5.504226 3.390949,6.604481 3.647373,8.972543 l 1.427739,0.269168 c 0.606236,-3.838004 -2.020002,-7.31469 -3.719125,-10.232477 2.12144,0.706497 5.090618,0.707148 8.516848,4.391747 1.759002,9.901259 -0.68755,8.75116 -1.587917,11.871384 l 1.94853,0.660623 c 2.550463,-1.912141 2.148416,-7.442366 1.35231,-13.455486 3.585126,1.719965 6.688019,3.729649 6.363772,7.798358 0.108265,6.602626 -2.751199,7.334084 -4.645351,9.975257 l 0.197519,0.550461 c 3.913088,-1.233551 5.281789,-6.437994 6.681539,-11.057736 1.65236,1.777651 3.11482,3.708231 3.40733,6.581121 -0.27906,3.521894 -1.73063,6.777847 -7.081012,9.14948 l 0.29849,1.229356 c 3.773762,-1.569425 6.083742,-4.769753 8.416642,-7.944544 0.32865,4.126853 2.97035,4.778023 -3.10776,12.537989 -1.99687,2.502411 -4.499095,3.06086 -6.927861,1.62662 7.265601,6.444671 3.459061,5.012561 1.568646,8.214051 z"
       id="path3-1"
       sodipodi:nodetypes="cccccccccccccccccccccccccccccccccccccc" /><circle
       id="path1-2"
       style="fill:#d7d7f4;stroke:#000000;stroke-width:0.264583"
       cx="-132.43681"
       cy="180.33972"
       r="0.12285838"
       transform="scale(-1,1)" /><circle
       id="path2-7"
       style="fill:#d7d7f4;stroke:#000000;stroke-width:0.264583"
       cx="-127.51756"
       cy="180.95461"
       r="0.12285838"
       transform="scale(-1,1)" /><path
       style="fill:#b07f0a;fill-opacity:0.85661763;stroke-width:0.264583"
       d="m 120.06078,205.3379 c -2.42156,7.01224 -1.56627,6.38942 -8.04389,4.13064 l -0.4348,-6.95687 c -2.22418,-3.36326 -4.75019,-6.32408 -8.6961,-7.39169 -4.348053,-0.84015 -8.913503,-1.24038 -13.261553,0.21741 l -4.782848,2.60883 c 6.007558,0.36957 9.732738,3.02153 13.478948,5.65246 l 2.608833,6.08726 c -2.118183,-0.68125 -3.658723,-1.1799 -5.217663,-3.47843 -4.38194,-6.1878 -9.824008,-7.04584 -14.783368,-6.30467 -4.49885,1.78655 -5.39412,4.1737 -6.52207,6.52207 8.27511,0.0587 13.12674,3.54078 17.392198,7.60908 l -0.86961,1.73922 c -5.008388,-5.84142 -11.160018,-8.76847 -18.479208,-6.52207 -2.57825,2.87776 -5.74949,5.45901 -5.00025,10.00051 5.00025,-2.28718 10.00051,-1.9136 15.00076,0.4348 l -3.69584,1.08702 c -5.289,-1.64328 -10.64019,-1.78845 -13.91375,5.43505 -1.60033,3.55091 -2.33816,5.7974 -1.95662,8.26129 5.72185,0.57974 8.68007,1.15948 6.30467,1.73922 9.19683,-2.3093 8.91476,-4.38663 11.08752,-6.73947 l 1.73922,0.86961 c -2.43121,4.64408 -8.02159,6.26937 -12.17454,8.04389 2.83011,0.96057 5.99865,3.37379 12.60934,2.17402 9.817518,-9.27922 6.28476,-10.0243 7.826488,-14.13115 l 2.60883,0.86961 c 1.18774,4.1417 -3.67642,9.79637 -9.348308,15.65297 5.20461,1.05437 10.127038,1.40332 13.044148,-3.26104 5.410763,-7.05343 2.94643,-10.16931 3.04363,-14.56596 l 0.652213,-0.4348 c 3.18584,4.51554 0.47228,11.25745 -1.739223,17.39219 3.188673,-0.57936 6.297383,-1.47852 8.913503,-4.34805 2.52678,-4.03618 3.58925,-8.73796 -0.2174,-15.65297 l 1.30441,-1.08701 c 2.76781,4.76555 2.66585,10.10505 2.60883,15.43557 3.66035,-4.19645 7.00119,-2.75307 6.73947,-16.08778 -0.12368,-4.33007 -2.3456,-6.96839 -6.08726,-7.39168 12.92072,-1.0637 7.71073,-2.60942 8.26129,-7.60908 z"
       id="path3-6"
       sodipodi:nodetypes="cccccccccccccccccccccccccccccccccccccc" /><circle
       id="path1-22"
       style="fill:#d7d7f4;stroke:#000000;stroke-width:0.264583"
       cx="82.765724"
       cy="132.44374"
       r="0.12285838" /><circle
       id="path2-1"
       style="fill:#d7d7f4;stroke:#000000;stroke-width:0.264583"
       cx="55.709816"
       cy="107.23254"
       r="0.12285838" /><path
       style="fill:#eed04b;fill-opacity:0.6875;stroke-width:0.13077"
       d="m 127.43929,253.28438 c 1.21204,3.4224 0.78395,3.11842 4.02612,2.016 l 0.21763,-3.39537 c 1.11324,-1.64148 2.37756,-3.08654 4.35256,-3.60759 2.17629,-0.41005 4.46138,-0.60538 6.63767,0.1061 l 2.39391,1.27327 c -3.0069,0.18037 -4.87143,1.47469 -6.74648,2.75875 l -1.30577,2.97095 c 1.06019,-0.33249 1.83126,-0.57587 2.61154,-1.69769 2.19325,-3.02002 4.91711,-3.43879 7.39936,-3.07706 2.25176,0.87195 2.69986,2.03702 3.26443,3.18317 -4.14186,0.0286 -6.57019,1.72811 -8.70514,3.71369 l 0.43526,0.84884 c 2.5068,-2.85096 5.58581,-4.27954 9.2492,-3.18316 1.29047,1.40452 2.87773,2.66433 2.50273,4.88085 -2.50273,-1.11628 -5.00546,-0.93395 -7.50818,0.21221 l 1.84984,0.53053 c 2.64725,-0.80202 5.32563,-0.87287 6.96411,2.65264 0.80099,1.73306 1.17029,2.82948 0.97932,4.03201 -2.8639,0.28295 -4.34454,0.56589 -3.15561,0.84884 -4.60319,-1.12708 -4.46201,-2.14094 -5.54952,-3.28927 l -0.87051,0.42442 c 1.21687,2.2666 4.01496,3.05984 6.09359,3.92591 -1.41652,0.46882 -3.00244,1.64661 -6.31122,1.06105 -4.91386,-4.52882 -3.14564,-4.89246 -3.91731,-6.89685 l -1.30577,0.42442 c -0.59448,2.0214 1.84012,4.78122 4.67901,7.6396 -2.605,0.51459 -5.06878,0.6849 -6.52885,-1.59159 -2.70819,-3.4425 -1.47474,-4.96324 -1.52339,-7.10907 l -0.32645,-0.21221 c -1.59457,2.20386 -0.23638,5.49432 0.87052,8.48844 -1.59599,-0.28276 -3.15196,-0.7216 -4.46138,-2.12211 -1.2647,-1.9699 -1.79649,-4.26465 0.10881,-7.6396 l -0.65288,-0.53052 c -1.38534,2.32588 -1.33431,4.93187 -1.30577,7.53349 -1.83208,-2.04812 -3.50423,-1.34366 -3.37324,-7.85181 0.0619,-2.11334 1.17402,-3.401 3.04679,-3.60759 -6.46707,-0.51915 -3.85936,-1.27355 -4.13493,-3.71369 z"
       id="path3-68"
       sodipodi:nodetypes="cccccccccccccccccccccccccccccccccccccc" /><ellipse
       id="path1-8"
       style="fill:#d7d7f4;stroke:#000000;stroke-width:0.129073"
       cx="-16.510744"
       cy="-110.27305"
       transform="matrix(-0.35734551,0.93397226,-0.93885871,-0.34430266,0,0)"
       rx="0.059457511"
       ry="0.060415391" /><ellipse
       id="path2-9"
       style="fill:#d7d7f4;stroke:#000000;stroke-width:0.129073"
       cx="-14.130064"
       cy="-109.97068"
       transform="matrix(-0.35734551,0.93397226,-0.93885871,-0.34430266,0,0)"
       rx="0.059457511"
       ry="0.060415391" /><path
       style="fill:#ca9a33;fill-opacity:0.98161763;stroke-width:0.129066"
       d="m 103.05743,20.883457 c -3.656205,-0.0927 -3.220745,-0.37384 -3.298135,2.93646 l 3.136675,1.37439 c 1.16811,1.57476 2.09823,3.21781 1.90872,5.18211 -0.36406,2.10755 -0.96882,4.23888 -2.3938,5.95737 l -2.03158,1.72013 c 0.86831,-2.77797 0.28817,-4.91074 -0.27862,-7.04947 l -2.359215,-2.20981 c -0.0518,1.07275 -0.088,1.8535 0.70359,2.9473 2.099005,3.02828 1.554,5.63336 0.35415,7.74949 -1.60284,1.73099 -2.85977,1.73147 -4.139035,1.8437 1.403985,-3.75026 0.635395,-6.53274 -0.505204,-9.14952 l -0.953355,0.0986 c 1.830738,3.25279 2.118254,6.5289 -0.184634,9.45681 -1.774488,0.67813 -3.514633,1.67449 -5.48179,0.56692 1.920684,-1.87286 2.612943,-4.19622 2.393462,-6.85393 l -1.141009,1.48647 c -0.155996,2.66884 -1.014398,5.11214 -4.915481,5.36877 -1.916149,0.12214 -3.080912,0.0753 -4.152463,-0.51434 0.721869,-2.68441 0.965802,-4.11968 0.28735,-3.14416 2.656644,-3.76596 3.566929,-3.28674 5.028946,-3.87047 l -0.100706,-0.93335 c -2.564537,0.3126 -4.281693,2.56427 -5.81916,4.14095 0.04595,-1.44184 -0.520224,-3.2826 1.176927,-6.06748 5.981872,-2.86643 5.714913,-1.14348 7.877596,-1.145 l 0.04968,-1.32642 c -1.706743,-1.23809 -5.158601,0.003 -8.843373,1.5752 0.413291,-2.53098 1.103462,-4.81499 3.761392,-5.34379 4.192168,-1.25144 5.204538,0.38999 7.251202,1.09045 l 0.313531,-0.22118 c -1.533791,-2.20452 -5.115687,-2.11947 -8.330439,-2.15855 0.818922,-1.34318 1.771662,-2.59607 3.548899,-3.29271 2.300409,-0.45873 4.654878,-0.14291 7.189099,2.74847 l 0.727435,-0.40555 c -1.721509,-2.0579 -4.204294,-2.91584 -6.67516,-3.79258 2.570439,-0.94397 2.481815,-2.6984 8.59295,-0.3224 1.97773,0.78903 2.81154,2.24003 2.35989,4.00292 2.725575,-5.66004 2.538205,-3.04343 4.941665,-2.44579 z"
       id="path3-2"
       sodipodi:nodetypes="cccccccccccccccccccccccccccccccccccccc" /><circle
       id="path5"
       style="fill:#040410;stroke:#000000;stroke-width:0.264583"
       cx="140.19876"
       cy="129.74535"
       r="0.47095713" /></g></svg>
