<?xml version="1.0" encoding="UTF-8" standalone="no"?>
<!-- Created with Inkscape (http://www.inkscape.org/) -->

<svg
   width="91.967682mm"
   height="50.970337mm"
   viewBox="0 0 91.967682 50.970337"
   version="1.1"
   id="svg1"
   xml:space="preserve"
   inkscape:version="1.4.3 (0d15f75, 2025-12-25)"
   sodipodi:docname="leaf2.svg"
   xmlns:inkscape="http://www.inkscape.org/namespaces/inkscape"
   xmlns:sodipodi="http://sodipodi.sourceforge.net/DTD/sodipodi-0.dtd"
   xmlns="http://www.w3.org/2000/svg"
   xmlns:svg="http://www.w3.org/2000/svg"><sodipodi:namedview
     id="namedview1"
     pagecolor="#ffffff"
     bordercolor="#000000"
     borderopacity="0.25"
     inkscape:showpageshadow="2"
     inkscape:pageopacity="0.0"
     inkscape:pagecheckerboard="0"
     inkscape:deskcolor="#d1d1d1"
     inkscape:document-units="mm"
     inkscape:zoom="0.86056397"
     inkscape:cx="98.191422"
     inkscape:cy="164.42706"
     inkscape:window-width="1366"
     inkscape:window-height="697"
     inkscape:window-x="-8"
     inkscape:window-y="-8"
     inkscape:window-maximized="1"
     inkscape:current-layer="layer1" /><defs
     id="defs1" /><g
     inkscape:label="Layer 1"
     inkscape:groupmode="layer"
     id="layer1"
     transform="translate(-92.591818,-45.605116)"><path
       style="fill:#dea721;fill-opacity:0.763889;stroke-width:0.264583"
       d="m 93.325394,50.877667 c 9.184246,-3.653149 17.905136,-6.269394 20.835736,4.071808 1.65924,-3.89347 -0.51729,-6.643534 -2.94243,-9.040694 4.1502,0.873662 9.82132,-2.708549 13.62909,3.108062 1.41417,3.601223 2.3181,7.179 1.16469,10.66225 4.86489,-3.653372 2.50419,-7.638729 1.16456,-11.577174 7.22683,1.966436 12.13249,5.777162 13.03939,12.76509 1.189,7.730833 0.0967,13.659588 -8.41686,13.725825 0.2686,5.327622 -0.16209,10.42528 -7.5668,13.229571 -7.41318,4.835611 -14.58895,-1.367454 -20.73585,-5.186487 11.25727,0.479217 12.77218,-2.414786 12.20938,-5.181375 -4.23397,3.475565 -9.10943,5.351296 -14.26131,3.237866 -5.199677,-3.35029 -6.106906,-7.661978 -7.090881,-11.956478 5.211943,0.72201 10.061361,5.006564 15.693741,1.597015 l -0.10946,-1.854259 c -0.18443,-0.722534 -6.82848,4.683772 -15.991276,-2.535298 -1.783258,-0.06263 -1.605605,-5.523364 -0.62172,-15.065722 z"
       id="path1"
       sodipodi:nodetypes="ccccccccccccccccc" /><path
       style="fill:#f6db1c;fill-opacity:0.767361;stroke-width:0.264583"
       d="m 141.74176,95.509371 c 0.36801,-1.742948 0.74399,-3.466008 0.64332,-6.381947 -1.71846,-2.817887 -3.38239,-5.673985 -1.4763,-11.031734 0.0771,-2.603556 1.88539,-5.489093 4.30913,-8.474865 1.50888,1.14284 1.03726,2.766643 0.8379,4.32432 2.92041,-6.414362 9.34869,-8.023378 15.5575,-9.933044 11.33955,-3.494911 16.88811,-0.387478 22.94619,2.139033 -3.85112,1.321316 -4.56039,4.080028 -14.82349,2.467875 0,0 -0.48773,0.613625 -0.5058,0.830322 l -0.0181,0.216646 c 3.26097,-0.414684 5.15799,0.610698 5.86656,2.890889 -2.59311,2.605519 -5.24245,5.086275 -9.03806,5.024718 -3.11736,-2.221157 -6.69341,-2.635874 -10.67858,-1.439324 l -1.3457,1.741727 c 3.91113,-1.142225 7.69448,-1.634733 10.60604,2.305916 -0.9015,3.778646 -5.70583,10.35487 -21.23512,8.694188 l 0.66512,7.691363 z"
       id="path2"
       sodipodi:nodetypes="ccccccccsccccccccc" /></g></svg>
